<?xml version="1.0" encoding="UTF-8"?>
<svg id="Layer_2" data-name="Layer 2" xmlns="http://www.w3.org/2000/svg" viewBox="0 0 1206 180">
  <g id="Layer_1-2" data-name="Layer 1">
    <rect y="27" width="18" height="18"/>
    <rect y="0" width="18" height="18"/>
    <rect x="27" y="135" width="18" height="18"/>
    <rect y="135" width="18" height="18"/>
    <rect x="27" y="162" width="18" height="18"/>
    <rect y="162" width="18" height="18"/>
    <rect y="81" width="18" height="18"/>
    <rect y="108" width="18" height="18"/>
    <rect x="27" y="108" width="18" height="18"/>
    <rect y="54" width="18" height="18"/>
    <rect x="27" y="27" width="18" height="18"/>
    <rect x="54" y="27" width="18" height="18"/>
    <rect x="54" y="54" width="18" height="18"/>
    <rect x="81" y="54" width="18" height="18"/>
    <rect x="81" y="81" width="18" height="18"/>
    <rect x="108" y="81" width="18" height="18"/>
    <rect x="108" y="108" width="18" height="18"/>
    <rect x="27" y="0" width="18" height="18"/>
    <rect x="27" y="81" width="18" height="18"/>
    <rect x="27" y="54" width="18" height="18"/>
    <rect x="135" y="27" width="18" height="18"/>
    <rect x="135" y="0" width="18" height="18"/>
    <rect x="162" y="135" width="18" height="18"/>
    <rect x="135" y="135" width="18" height="18"/>
    <rect x="162" y="162" width="18" height="18"/>
    <rect x="135" y="162" width="18" height="18"/>
    <rect x="135" y="81" width="18" height="18"/>
    <rect x="135" y="108" width="18" height="18"/>
    <rect x="162" y="108" width="18" height="18"/>
    <rect x="135" y="54" width="18" height="18"/>
    <rect x="162" y="27" width="18" height="18"/>
    <rect x="162" y="0" width="18" height="18"/>
    <rect x="162" y="81" width="18" height="18"/>
    <rect x="162" y="54" width="18" height="18"/>
    <rect x="351" y="0" width="18" height="18" transform="translate(369 -351) rotate(90)"/>
    <rect x="378" y="0" width="18" height="18" transform="translate(396 -378) rotate(90)"/>
    <rect x="243" y="27" width="18" height="18" transform="translate(288 -216) rotate(90)"/>
    <rect x="243" y="0" width="18" height="18" transform="translate(261 -243) rotate(90)"/>
    <rect x="216" y="27" width="18" height="18" transform="translate(261 -189) rotate(90)"/>
    <rect x="216" y="0" width="18" height="18" transform="translate(234 -216) rotate(90)"/>
    <rect x="243" y="81" width="18" height="18" transform="translate(342 -162) rotate(90)"/>
    <rect x="243" y="54" width="18" height="18" transform="translate(315 -189) rotate(90)"/>
    <rect x="216" y="81" width="18" height="18" transform="translate(315 -135) rotate(90)"/>
    <rect x="216" y="54" width="18" height="18" transform="translate(288 -162) rotate(90)"/>
    <rect x="297" y="0" width="18" height="18" transform="translate(315 -297) rotate(90)"/>
    <rect x="270" y="0" width="18" height="18" transform="translate(288 -270) rotate(90)"/>
    <rect x="270" y="27" width="18" height="18" transform="translate(315 -243) rotate(90)"/>
    <rect x="324" y="0" width="18" height="18" transform="translate(342 -324) rotate(90)"/>
    <rect x="351" y="27" width="18" height="18" transform="translate(396 -324) rotate(90)"/>
    <rect x="351" y="54" width="18" height="18" transform="translate(423 -297) rotate(90)"/>
    <rect x="324" y="54" width="18" height="18" transform="translate(396 -270) rotate(90)"/>
    <rect x="324" y="81" width="18" height="18" transform="translate(423 -243) rotate(90)"/>
    <rect x="297" y="81" width="18" height="18" transform="translate(396 -216) rotate(90)"/>
    <rect x="297" y="108" width="18" height="18" transform="translate(423 -189) rotate(90)"/>
    <rect x="270" y="108" width="18" height="18" transform="translate(396 -162) rotate(90)"/>
    <rect x="378" y="27" width="18" height="18" transform="translate(423 -351) rotate(90)"/>
    <rect x="297" y="27" width="18" height="18" transform="translate(342 -270) rotate(90)"/>
    <rect x="324" y="27" width="18" height="18" transform="translate(369 -297) rotate(90)"/>
    <rect x="351" y="135" width="18" height="18" transform="translate(504 -216) rotate(90)"/>
    <rect x="378" y="135" width="18" height="18" transform="translate(531 -243) rotate(90)"/>
    <rect x="243" y="162" width="18" height="18" transform="translate(423 -81) rotate(90)"/>
    <rect x="243" y="135" width="18" height="18" transform="translate(396 -108) rotate(90)"/>
    <rect x="216" y="162" width="18" height="18" transform="translate(396 -54) rotate(90)"/>
    <rect x="216" y="135" width="18" height="18" transform="translate(369 -81) rotate(90)"/>
    <rect x="243" y="108" width="18" height="18" transform="translate(369 -135) rotate(90)"/>
    <rect x="216" y="108" width="18" height="18" transform="translate(342 -108) rotate(90)"/>
    <rect x="297" y="135" width="18" height="18" transform="translate(450 -162) rotate(90)"/>
    <rect x="270" y="135" width="18" height="18" transform="translate(423 -135) rotate(90)"/>
    <rect x="270" y="162" width="18" height="18" transform="translate(450 -108) rotate(90)"/>
    <rect x="324" y="135" width="18" height="18" transform="translate(477 -189) rotate(90)"/>
    <rect x="351" y="162" width="18" height="18" transform="translate(531 -189) rotate(90)"/>
    <rect x="378" y="162" width="18" height="18" transform="translate(558 -216) rotate(90)"/>
    <rect x="297" y="162" width="18" height="18" transform="translate(477 -135) rotate(90)"/>
    <rect x="324" y="162" width="18" height="18" transform="translate(504 -162) rotate(90)"/>
    <rect x="1026" y="135" width="18" height="18" transform="translate(2070 288) rotate(-180)"/>
    <rect x="1026" y="162" width="18" height="18" transform="translate(2070 342) rotate(-180)"/>
    <rect x="999" y="27" width="18" height="18" transform="translate(2016 72) rotate(-180)"/>
    <rect x="1026" y="27" width="18" height="18" transform="translate(2070 72) rotate(-180)"/>
    <rect x="999" y="0" width="18" height="18" transform="translate(2016 18) rotate(-180)"/>
    <rect x="1026" y="0" width="18" height="18" transform="translate(2070 18) rotate(-180)"/>
    <rect x="945" y="27" width="18" height="18" transform="translate(1908 72) rotate(-180)"/>
    <rect x="972" y="27" width="18" height="18" transform="translate(1962 72) rotate(-180)"/>
    <rect x="945" y="0" width="18" height="18" transform="translate(1908 18) rotate(-180)"/>
    <rect x="972" y="0" width="18" height="18" transform="translate(1962 18) rotate(-180)"/>
    <rect x="1026" y="81" width="18" height="18" transform="translate(2070 180) rotate(-180)"/>
    <rect x="1026" y="54" width="18" height="18" transform="translate(2070 126) rotate(-180)"/>
    <rect x="999" y="54" width="18" height="18" transform="translate(2016 126) rotate(-180)"/>
    <rect x="1026" y="108" width="18" height="18" transform="translate(2070 234) rotate(-180)"/>
    <rect x="999" y="135" width="18" height="18" transform="translate(2016 288) rotate(-180)"/>
    <rect x="972" y="135" width="18" height="18" transform="translate(1962 288) rotate(-180)"/>
    <rect x="972" y="108" width="18" height="18" transform="translate(1962 234) rotate(-180)"/>
    <rect x="945" y="108" width="18" height="18" transform="translate(1908 234) rotate(-180)"/>
    <rect x="945" y="81" width="18" height="18" transform="translate(1908 180) rotate(-180)"/>
    <rect x="918" y="81" width="18" height="18" transform="translate(1854 180) rotate(-180)"/>
    <rect x="918" y="54" width="18" height="18" transform="translate(1854 126) rotate(-180)"/>
    <rect x="999" y="162" width="18" height="18" transform="translate(2016 342) rotate(-180)"/>
    <rect x="999" y="81" width="18" height="18" transform="translate(2016 180) rotate(-180)"/>
    <rect x="999" y="108" width="18" height="18" transform="translate(2016 234) rotate(-180)"/>
    <rect x="891" y="135" width="18" height="18" transform="translate(1800 288) rotate(-180)"/>
    <rect x="891" y="162" width="18" height="18" transform="translate(1800 342) rotate(-180)"/>
    <rect x="864" y="27" width="18" height="18" transform="translate(1746 72) rotate(-180)"/>
    <rect x="891" y="27" width="18" height="18" transform="translate(1800 72) rotate(-180)"/>
    <rect x="864" y="0" width="18" height="18" transform="translate(1746 18) rotate(-180)"/>
    <rect x="891" y="0" width="18" height="18" transform="translate(1800 18) rotate(-180)"/>
    <rect x="918" y="27" width="18" height="18" transform="translate(1854 72) rotate(-180)"/>
    <rect x="918" y="0" width="18" height="18" transform="translate(1854 18) rotate(-180)"/>
    <rect x="891" y="81" width="18" height="18" transform="translate(1800 180) rotate(-180)"/>
    <rect x="891" y="54" width="18" height="18" transform="translate(1800 126) rotate(-180)"/>
    <rect x="864" y="54" width="18" height="18" transform="translate(1746 126) rotate(-180)"/>
    <rect x="891" y="108" width="18" height="18" transform="translate(1800 234) rotate(-180)"/>
    <rect x="864" y="135" width="18" height="18" transform="translate(1746 288) rotate(-180)"/>
    <rect x="864" y="162" width="18" height="18" transform="translate(1746 342) rotate(-180)"/>
    <rect x="864" y="81" width="18" height="18" transform="translate(1746 180) rotate(-180)"/>
    <rect x="864" y="108" width="18" height="18" transform="translate(1746 234) rotate(-180)"/>
    <rect x="810" y="162" width="18" height="18" transform="translate(1638 342) rotate(-180)"/>
    <rect x="783" y="27" width="18" height="18" transform="translate(1584 72) rotate(-180)"/>
    <rect x="810" y="27" width="18" height="18" transform="translate(1638 72) rotate(-180)"/>
    <rect x="783" y="0" width="18" height="18" transform="translate(1584 18) rotate(-180)"/>
    <rect x="810" y="0" width="18" height="18" transform="translate(1638 18) rotate(-180)"/>
    <rect x="729" y="27" width="18" height="18" transform="translate(1476 72) rotate(-180)"/>
    <rect x="756" y="27" width="18" height="18" transform="translate(1530 72) rotate(-180)"/>
    <rect x="729" y="0" width="18" height="18" transform="translate(1476 18) rotate(-180)"/>
    <rect x="756" y="0" width="18" height="18" transform="translate(1530 18) rotate(-180)"/>
    <rect x="810" y="81" width="18" height="18" transform="translate(1638 180) rotate(-180)"/>
    <rect x="810" y="54" width="18" height="18" transform="translate(1638 126) rotate(-180)"/>
    <rect x="783" y="54" width="18" height="18" transform="translate(1584 126) rotate(-180)"/>
    <rect x="783" y="135" width="18" height="18" transform="translate(1584 288) rotate(-180)"/>
    <rect x="756" y="135" width="18" height="18" transform="translate(1530 288) rotate(-180)"/>
    <rect x="756" y="108" width="18" height="18" transform="translate(1530 234) rotate(-180)"/>
    <rect x="729" y="108" width="18" height="18" transform="translate(1476 234) rotate(-180)"/>
    <rect x="729" y="81" width="18" height="18" transform="translate(1476 180) rotate(-180)"/>
    <rect x="702" y="81" width="18" height="18" transform="translate(1422 180) rotate(-180)"/>
    <rect x="783" y="162" width="18" height="18" transform="translate(1584 342) rotate(-180)"/>
    <rect x="783" y="81" width="18" height="18" transform="translate(1584 180) rotate(-180)"/>
    <rect x="756" y="81" width="18" height="18" transform="translate(1530 180) rotate(-180)"/>
    <rect x="675" y="135" width="18" height="18" transform="translate(1368 288) rotate(-180)"/>
    <rect x="675" y="162" width="18" height="18" transform="translate(1368 342) rotate(-180)"/>
    <rect x="648" y="27" width="18" height="18" transform="translate(1314 72) rotate(-180)"/>
    <rect x="675" y="27" width="18" height="18" transform="translate(1368 72) rotate(-180)"/>
    <rect x="648" y="0" width="18" height="18" transform="translate(1314 18) rotate(-180)"/>
    <rect x="675" y="0" width="18" height="18" transform="translate(1368 18) rotate(-180)"/>
    <rect x="702" y="27" width="18" height="18" transform="translate(1422 72) rotate(-180)"/>
    <rect x="702" y="0" width="18" height="18" transform="translate(1422 18) rotate(-180)"/>
    <rect x="675" y="81" width="18" height="18" transform="translate(1368 180) rotate(-180)"/>
    <rect x="675" y="54" width="18" height="18" transform="translate(1368 126) rotate(-180)"/>
    <rect x="648" y="54" width="18" height="18" transform="translate(1314 126) rotate(-180)"/>
    <rect x="675" y="108" width="18" height="18" transform="translate(1368 234) rotate(-180)"/>
    <rect x="648" y="135" width="18" height="18" transform="translate(1314 288) rotate(-180)"/>
    <rect x="648" y="162" width="18" height="18" transform="translate(1314 342) rotate(-180)"/>
    <rect x="648" y="81" width="18" height="18" transform="translate(1314 180) rotate(-180)"/>
    <rect x="648" y="108" width="18" height="18" transform="translate(1314 234) rotate(-180)"/>
    <rect x="432" y="27" width="18" height="18"/>
    <rect x="432" y="0" width="18" height="18"/>
    <rect x="459" y="135" width="18" height="18"/>
    <rect x="432" y="135" width="18" height="18"/>
    <rect x="459" y="162" width="18" height="18"/>
    <rect x="432" y="162" width="18" height="18"/>
    <rect x="513" y="135" width="18" height="18"/>
    <rect x="486" y="135" width="18" height="18"/>
    <rect x="513" y="162" width="18" height="18"/>
    <rect x="486" y="162" width="18" height="18"/>
    <rect x="432" y="81" width="18" height="18"/>
    <rect x="432" y="108" width="18" height="18"/>
    <rect x="459" y="108" width="18" height="18"/>
    <rect x="432" y="54" width="18" height="18"/>
    <rect x="459" y="27" width="18" height="18"/>
    <rect x="459" y="0" width="18" height="18"/>
    <rect x="459" y="81" width="18" height="18"/>
    <rect x="459" y="54" width="18" height="18"/>
    <rect x="567" y="27" width="18" height="18"/>
    <rect x="567" y="0" width="18" height="18"/>
    <rect x="594" y="135" width="18" height="18"/>
    <rect x="567" y="135" width="18" height="18"/>
    <rect x="594" y="162" width="18" height="18"/>
    <rect x="567" y="162" width="18" height="18"/>
    <rect x="540" y="135" width="18" height="18"/>
    <rect x="540" y="162" width="18" height="18"/>
    <rect x="1080" y="27" width="18" height="18"/>
    <rect x="1080" y="0" width="18" height="18"/>
    <rect x="1107" y="135" width="18" height="18"/>
    <rect x="1080" y="135" width="18" height="18"/>
    <rect x="1107" y="162" width="18" height="18"/>
    <rect x="1080" y="162" width="18" height="18"/>
    <rect x="1161" y="135" width="18" height="18"/>
    <rect x="1134" y="135" width="18" height="18"/>
    <rect x="1161" y="162" width="18" height="18"/>
    <rect x="1134" y="162" width="18" height="18"/>
    <rect x="1080" y="81" width="18" height="18"/>
    <rect x="1080" y="108" width="18" height="18"/>
    <rect x="1107" y="108" width="18" height="18"/>
    <rect x="1080" y="54" width="18" height="18"/>
    <rect x="1107" y="27" width="18" height="18"/>
    <rect x="1107" y="0" width="18" height="18"/>
    <rect x="1107" y="81" width="18" height="18"/>
    <rect x="1107" y="54" width="18" height="18"/>
    <rect x="1188" y="135" width="18" height="18"/>
    <rect x="1188" y="162" width="18" height="18"/>
    <rect x="567" y="81" width="18" height="18"/>
    <rect x="567" y="108" width="18" height="18"/>
    <rect x="594" y="108" width="18" height="18"/>
    <rect x="567" y="54" width="18" height="18"/>
    <rect x="594" y="27" width="18" height="18"/>
    <rect x="594" y="0" width="18" height="18"/>
    <rect x="594" y="81" width="18" height="18"/>
    <rect x="594" y="54" width="18" height="18"/>
  </g>
</svg>