<?xml version="1.0" encoding="UTF-8"?>
<svg id="Layer_2" data-name="Layer 2" xmlns="http://www.w3.org/2000/svg" viewBox="0 0 180 180">
  <g id="Layer_1-2" data-name="Layer 1">
    <rect y="27" width="18" height="18"/>
    <rect width="18" height="18"/>
    <rect x="27" y="135" width="18" height="18"/>
    <rect y="135" width="18" height="18"/>
    <rect x="27" y="162" width="18" height="18"/>
    <rect y="162" width="18" height="18"/>
    <rect y="81" width="18" height="18"/>
    <rect y="108" width="18" height="18"/>
    <rect x="27" y="108" width="18" height="18"/>
    <rect y="54" width="18" height="18"/>
    <rect x="27" y="27" width="18" height="18"/>
    <rect x="54" y="27" width="18" height="18"/>
    <rect x="54" y="54" width="18" height="18"/>
    <rect x="81" y="54" width="18" height="18"/>
    <rect x="81" y="81" width="18" height="18"/>
    <rect x="108" y="81" width="18" height="18"/>
    <rect x="108" y="108" width="18" height="18"/>
    <rect x="27" width="18" height="18"/>
    <rect x="27" y="81" width="18" height="18"/>
    <rect x="27" y="54" width="18" height="18"/>
    <rect x="135" y="27" width="18" height="18"/>
    <rect x="135" width="18" height="18"/>
    <rect x="162" y="135" width="18" height="18"/>
    <rect x="135" y="135" width="18" height="18"/>
    <rect x="162" y="162" width="18" height="18"/>
    <rect x="135" y="162" width="18" height="18"/>
    <rect x="135" y="81" width="18" height="18"/>
    <rect x="135" y="108" width="18" height="18"/>
    <rect x="162" y="108" width="18" height="18"/>
    <rect x="135" y="54" width="18" height="18"/>
    <rect x="162" y="27" width="18" height="18"/>
    <rect x="162" width="18" height="18"/>
    <rect x="162" y="81" width="18" height="18"/>
    <rect x="162" y="54" width="18" height="18"/>
  </g>
</svg>